#!OML:ASF E:\Steps\Project 1\Capture day 1\Session 2\Subject.ASF
:FULLY-SPECIFIED
:DEGREES
289
root 11.1956 14.1951 12.1069 -143.819 12.5237 542.892
lowerback -6.3833 -0.727567 -7.16112
upperback -0.196053 -0.338303 -0.913186
thorax 3.42441 -0.244115 3.04275
lowerneck 0.150658 -0.923455 -4.18638
upperneck 8.87776 -1.34023 7.14409
head 2.94391 -0.451628 3.08156
rclavicle -1.43125e-014 -4.53229e-014
rhumerus -37.7338 -7.33684 -85.0229
rradius 33.3517
rwrist -3.46858
rhand 1.82026 -45.4271
rfingers 7.12502
rthumb 27.3327 -73.4655
lclavicle -1.43125e-014 -4.53229e-014
lhumerus -14.6353 -18.7946 80.1176
lradius 37.9275
lwrist 10.5304
lhand -24.5837 -23.1658
lfingers 7.12502
lthumb 1.91362 6.80537
rfemur -78.5873 12.1257 8.10772
rtibia 64.9232
rfoot -36.0279 -18.322
rtoes -32.0127
lfemur -74.0731 -6.32423 -14.7435
ltibia 70.5831
lfoot -30.4422 10.2182
ltoes -37.9593
290
root 11.1785 14.3073 12.124 -143.841 12.2135 542.631
lowerback -6.54496 -0.759223 -6.9696
upperback -0.358236 -0.386395 -0.878449
thorax 3.34974 -0.257637 2.96718
lowerneck 0.130981 -0.937277 -4.14467
upperneck 8.88033 -1.358 7.14664
head 2.94901 -0.45781 3.07432
rclavicle 2.38542e-015 3.26007e-014
rhumerus -37.4395 -7.83007 -84.9512
rradius 33.0125
rwrist -3.25633
rhand 1.60201 -45.222
rfingers 7.12502
rthumb 27.1239 -73.2931
lclavicle 2.38542e-015 3.26007e-014
lhumerus -14.4235 -19.5335 79.9937
lradius 37.5368
lwrist 10.4246
lhand -25.8346 -25.0242
lfingers 7.12502
lthumb 0.70549 4.95436
rfemur -77.3344 11.7308 8.0369
rtibia 62.5738
rfoot -35.3927 -17.881
rtoes -33.1179
lfemur -73.3371 -6.85675 -14.7808
ltibia 68.856
lfoot -30.1801 10.3303
ltoes -37.6319
291
root 11.1644 14.4132 12.1385 -143.728 11.9004 542.501
lowerback -6.90901 -0.770957 -6.70444
upperback -0.532087 -0.398245 -0.812114
thorax 3.37228 -0.255181 2.8856
lowerneck 0.0515719 -0.951251 -4.0649
upperneck 8.89446 -1.37577 7.12759
head 2.96818 -0.462713 3.05289
rclavicle -6.36111e-015 -2.38542e-014
rhumerus -37.2278 -8.27702 -84.8705
rradius 32.7398
rwrist -2.92486
rhand 1.42677 -44.9869
rfingers 7.12502
rthumb 26.9563 -73.084
lclavicle -6.36111e-015 -2.38542e-014
lhumerus -14.1296 -20.1299 79.8765
lradius 37.026
lwrist 10.0023
lhand -23.846 -24.6436
lfingers 7.12502
lthumb 2.62611 5.31999
rfemur -77.0337 11.7824 7.72627
rtibia 61.81
rfoot -35.7951 -17.6987
rtoes -33.9035
lfemur -72.6455 -7.41442 -14.5499
ltibia 66.9576
lfoot -29.6338 10.7262
ltoes -38.0679
292
root 11.1535 14.5142 12.1515 -143.577 11.5739 542.548
lowerback -7.42424 -0.762878 -6.35497
upperback -0.70928 -0.386722 -0.636589
thorax 3.47358 -0.244023 2.87191
lowerneck 0.134247 -0.935568 -4.10386
upperneck 8.9145 -1.35067 7.12016
head 2.95845 -0.450837 3.05823
rclavicle -1.23246e-014 -1.90833e-014
rhumerus -37.0544 -8.57982 -84.6818
rradius 32.3969
rwrist -2.40645
rhand 1.95471 -45.0169
rfingers 7.12502
rthumb 27.4613 -73.035
lclavicle -1.23246e-014 -1.90833e-014
lhumerus -13.7799 -20.6963 79.9039
lradius 36.4543
lwrist 9.71817
lhand -21.6823 -22.6756
lfingers 7.12502
lthumb 4.71551 7.25192
rfemur -76.7675 12.0025 7.56779
rtibia 61.064
rfoot -36.1374 -17.8319
rtoes -35.4007
lfemur -72.0439 -7.84665 -14.1263
ltibia 65.2056
lfoot -28.922 11.1854
ltoes -39.3193
293
root 11.1468 14.6147 12.1621 -143.664 11.2116 542.507
lowerback -7.69872 -0.800748 -6.12058
upperback -0.990786 -0.445889 -0.463651
thorax 3.339 -0.25798 2.91415
lowerneck 0.621911 -0.880889 -4.24798
upperneck 8.91414 -1.26893 7.14466
head 2.86491 -0.415197 3.09327
rclavicle 1.74931e-014 -5.56597e-015
rhumerus -37.2278 -8.48901 -84.5624
rradius 32.1597
rwrist -2.08813
rhand 2.66129 -45.0394
rfingers 7.12502
rthumb 28.1369 -72.9483
lclavicle 1.74931e-014 -5.56597e-015
lhumerus -13.8208 -21.179 80.0733
lradius 35.9299
lwrist 9.40119
lhand -23.5203 -24.934
lfingers 7.12502
lthumb 2.94065 5.02549
rfemur -75.6377 11.8313 7.84057
rtibia 59.4311
rfoot -35.7955 -17.7397
rtoes -37.221
lfemur -71.2585 -8.31891 -13.8325
ltibia 63.6327
lfoot -28.4669 11.2171
ltoes -39.8446
294
root 11.1416 14.7147 12.1718 -143.885 10.8375 542.312
lowerback -7.7853 -0.821142 -6.0925
upperback -1.0231 -0.472056 -0.396198
thorax 3.35657 -0.270523 2.96553
lowerneck 0.306012 -0.902455 -4.15352
upperneck 8.94725 -1.29824 7.10464
head 2.93469 -0.424899 3.06319
rclavicle -1.59028e-015 -1.66979e-014
rhumerus -36.8335 -8.555 -84.6688
rradius 31.8212
rwrist -2.20515
rhand 2.31524 -45.9804
rfingers 7.12502
rthumb 27.806 -73.9433
lclavicle -1.59028e-015 -1.66979e-014
lhumerus -13.1275 -21.5829 79.9624
lradius 35.2725
lwrist 9.07022
lhand -23.8935 -25.3657
lfingers 7.12502
lthumb 2.58026 4.59841
rfemur -74.5155 11.681 7.98103
rtibia 58.0528
rfoot -35.5049 -17.7667
rtoes -39.0769
lfemur -70.3081 -8.94736 -13.6503
ltibia 61.9621
lfoot -28.3365 10.6583
ltoes -38.0854
295
root 11.1348 14.8117 12.1815 -144.036 10.49 542.109
lowerback -7.99416 -0.849383 -6.07536
upperback -1.06161 -0.498977 -0.30451
thorax 3.43649 -0.284901 3.04762
lowerneck 0.0714686 -0.899883 -4.13422
upperneck 8.9676 -1.29423 7.07408
head 2.98431 -0.421318 3.05074
rclavicle 1.23246e-014 3.18055e-015
rhumerus -36.3584 -8.65614 -84.6418
rradius 31.2394
rwrist -2.22253
rhand 1.7563 -45.7448
rfingers 7.12502
rthumb 27.2715 -73.7929
lclavicle 1.23246e-014 3.18055e-015
lhumerus -12.3284 -21.7867 79.9185
lradius 34.5078
lwrist 8.77122
lhand -23.3406 -24.8854
lfingers 7.12502
lthumb 3.11414 5.07159
rfemur -73.3348 11.696 7.96588
rtibia 56.4367
rfoot -35.3258 -17.6614
rtoes -40.3002
lfemur -69.4185 -9.59878 -13.4736
ltibia 60.2348
lfoot -28.1079 10.3162
ltoes -36.6846
296
root 11.1284 14.9066 12.1891 -144.17 10.147 541.92
lowerback -8.30368 -0.878622 -6.03986
upperback -1.17632 -0.521365 -0.185737
thorax 3.4929 -0.29274 3.14801
lowerneck 0.0924513 -0.873586 -4.17825
upperneck 8.98092 -1.25498 7.06064
head 2.98284 -0.402758 3.05551
rclavicle 7.95139e-015 -6.36111e-015
rhumerus -36.0575 -8.8569 -84.406
rradius 30.5697
rwrist -1.79941
rhand 1.7586 -44.6051
rfingers 7.12502
rthumb 27.2737 -72.6527
lclavicle 7.95139e-015 -6.36111e-015
lhumerus -11.7638 -22.0906 79.9905
lradius 33.7301
lwrist 8.56957
lhand -23.1585 -24.6185
lfingers 7.12502
lthumb 3.29001 5.33585
rfemur -72.472 11.4833 8.23501
rtibia 55.5207
rfoot -35.6853 -16.7289
rtoes -40.0062
lfemur -68.5714 -10.2101 -13.3454
ltibia 58.6909
lfoot -27.771 10.474
ltoes -37.1806
297
root 11.126 14.9964 12.1974 -144.157 9.81561 541.84
lowerback -8.87286 -0.92315 -5.98466
upperback -1.29989 -0.547583 -0.0110568
thorax 3.68565 -0.30493 3.29416
lowerneck 0.18716 -0.853129 -4.21284
upperneck 8.98277 -1.22388 7.05876
head 2.96425 -0.388053 3.06164
rclavicle -1.86858e-014 -1.19271e-014
rhumerus -35.6747 -9.08389 -84.1831
rradius 29.9033
rwrist -1.31359
rhand 0.87097 -44.5189
rfingers 7.12502
rthumb 26.4243 -72.6971
lclavicle -1.86858e-014 -1.19271e-014
lhumerus -11.2055 -22.2981 80.0797
lradius 32.9295
lwrist 8.47856
lhand -23.211 -24.5286
lfingers 7.12502
lthumb 3.23933 5.42653
rfemur -71.7214 11.3295 8.64711
rtibia 54.6272
rfoot -36.0255 -15.5634
rtoes -38.881
lfemur -67.9294 -10.6545 -13.118
ltibia 57.318
lfoot -27.5402 10.7119
ltoes -38.2086
298
root 11.126 15.0791 12.2052 -144.023 9.54374 541.882
lowerback -9.62707 -0.937614 -5.81555
upperback -1.476 -0.527374 0.130324
thorax 3.9201 -0.289209 3.3471
lowerneck 0.500857 -0.835983 -4.25371
upperneck 8.94985 -1.19639 7.08123
head 2.89379 -0.375947 3.07536
rclavicle 1.90833e-014 -1.03368e-014
rhumerus -35.4554 -9.27683 -84.0249
rradius 29.4311
rwrist -0.806403
rhand -0.176097 -45.8807
rfingers 7.12502
rthumb 25.4217 -74.2055
lclavicle 1.90833e-014 -1.03368e-014
lhumerus -10.7555 -22.3559 80.1723
lradius 32.1175
lwrist 8.2612
lhand -23.4055 -24.7933
lfingers 7.12502
lthumb 3.05151 5.16466
rfemur -71.0522 11.1825 9.27752
rtibia 53.7083
rfoot -36.2901 -14.4952
rtoes -38.0572
lfemur -67.4244 -10.9849 -12.7439
ltibia 55.9475
lfoot -27.2965 10.887
ltoes -38.7998
299
root 11.1236 15.1586 12.2075 -144.038 9.31476 541.802
lowerback -10.2669 -0.921645 -5.75781
upperback -1.21551 -0.472595 0.188654
thorax 4.5442 -0.288674 3.38044
lowerneck -0.484125 -0.863205 -4.15422
upperneck 8.97866 -1.24109 7.01482
head 3.0881 -0.393501 3.03901
rclavicle -1.39149e-014 8.34896e-015
rhumerus -34.3135 -9.5278 -84.012
rradius 28.8949
rwrist -0.152703
rhand 0.15646 -47.0972
rfingers 7.12502
rthumb 25.7402 -75.3764
lclavicle -1.39149e-014 8.34896e-015
lhumerus -9.27848 -22.3789 79.8507
lradius 31.1804
lwrist 7.99362
lhand -23.7965 -25.2279
lfingers 7.12502
lthumb 2.67386 4.7351
rfemur -70.2561 10.9714 9.84244
rtibia 52.8562
rfoot -36.3851 -13.6678
rtoes -37.7585
lfemur -66.7865 -11.4801 -12.4969
ltibia 54.6019
lfoot -27.0558 11.0391
ltoes -39.2727
300
root 11.1215 15.236 12.2088 -144.117 9.13987 541.674
lowerback -10.8942 -0.896335 -5.65009
upperback -1.46082 -0.391906 0.160894
thorax 4.62741 -0.233114 3.30211
lowerneck 0.228496 -0.83953 -4.22713
upperneck 8.91873 -1.20157 7.08052
head 2.93384 -0.376406 3.07111
rclavicle 1.90833e-014 4.77083e-015
rhumerus -34.4039 -9.84362 -83.7731
rradius 28.3404
rwrist 0.78042
rhand -0.739386 -46.3241
rfingers 7.12502
rthumb 24.882 -74.7247
lclavicle 1.90833e-014 4.77083e-015
lhumerus -8.9974 -22.5611 79.9419
lradius 30.2671
lwrist 7.69104
lhand -23.8952 -25.4721
lfingers 7.12502
lthumb 2.57854 4.49202
rfemur -69.3554 10.8521 10.3001
rtibia 52.1623
rfoot -36.3942 -13.0697
rtoes -37.6172
lfemur -66.0636 -11.9783 -12.3302
ltibia 53.25
lfoot -26.8282 11.4823
ltoes -41.2003
301
root 11.1234 15.3115 12.2109 -144.208 8.99811 541.609
lowerback -11.3863 -0.805123 -5.5604
upperback -1.6064 -0.234079 0.116234
thorax 4.73216 -0.145442 3.22891
lowerneck 0.486934 -0.878557 -4.13247
upperneck 8.9008 -1.25046 7.10742
head 2.88185 -0.395718 3.05967
rclavicle 2.64384e-014 7.95139e-015
rhumerus -34.2196 -10.8371 -83.3486
rradius 27.5243
rwrist 2.42117
rhand -1.2787 -45.8188
rfingers 7.12502
rthumb 24.365 -74.2898
lclavicle 2.64384e-014 7.95139e-015
lhumerus -8.38034 -22.8788 79.8839
lradius 29.3229
lwrist 7.47923
lhand -23.5927 -25.2954
lfingers 7.12502
lthumb 2.87067 4.66499
rfemur -68.4848 10.7329 10.8752
rtibia 51.419
rfoot -36.369 -12.2922
rtoes -37.7555
lfemur -65.1916 -12.3344 -12.1419
ltibia 51.6882
lfoot -26.5974 11.73
ltoes -42.2782
302
root 11.1269 15.3856 12.2104 -144.415 8.80627 541.531
lowerback -11.7126 -0.768818 -5.57497
upperback -1.47086 -0.166588 0.163737
thorax 5.04998 -0.126814 3.29832
lowerneck -0.279013 -0.920187 -4.0293
upperneck 8.94998 -1.31394 7.05905
head 3.04333 -0.421334 3.02723
rclavicle -4.77083e-015 -1.23246e-014
rhumerus -33.237 -11.8064 -82.9801
rradius 26.462
rwrist 4.12167
rhand -1.62607 -45.3117
rfingers 7.12502
rthumb 24.032 -73.8272
lclavicle -4.77083e-015 -1.23246e-014
lhumerus -7.21692 -22.9932 79.6365
lradius 28.4881
lwrist 7.28142
lhand -23.2372 -24.8487
lfingers 7.12502
lthumb 3.21404 5.10684
rfemur -67.4305 10.5775 11.4953
rtibia 50.5559
rfoot -36.3202 -11.5464
rtoes -38.4291
lfemur -64.2367 -12.7274 -11.9799
ltibia 50.1234
lfoot -26.5044 11.4565
ltoes -41.0117
